<?xml version="1.0" standalone="no"?>
<!DOCTYPE svg PUBLIC "-//W3C//DTD SVG 20010904//EN"
 "http://www.w3.org/TR/2001/REC-SVG-20010904/DTD/svg10.dtd">
<svg version="1.0" xmlns="http://www.w3.org/2000/svg"
 width="512.000000pt" height="512.000000pt" viewBox="0 0 512.000000 512.000000"
 preserveAspectRatio="xMidYMid meet">
<metadata>
Created by potrace 1.14, written by Peter Selinger 2001-2017
</metadata>
<g transform="translate(0.000000,512.000000) scale(0.100000,-0.100000)"
fill="#000000" stroke="none">
<path d="M575 4568 c-26 -23 -29 -31 -28 -89 0 -43 9 -87 25 -131 l25 -67
-131 4 c-146 5 -197 -7 -261 -58 -132 -105 -140 -348 -17 -481 34 -36 121 -93
156 -102 14 -3 26 -12 26 -20 0 -30 -62 -295 -86 -368 -18 -54 -50 -113 -98
-185 -99 -146 -121 -186 -152 -277 -46 -137 -38 -298 21 -415 56 -109 135
-194 260 -275 46 -30 86 -54 90 -54 4 0 27 -18 50 -39 92 -85 232 -131 415
-135 l54 -1 18 -75 c10 -41 27 -133 38 -205 12 -71 23 -141 25 -154 7 -42 19
-195 17 -231 0 -19 -4 -72 -8 -117 -9 -110 16 -172 86 -208 68 -35 215 -34
355 1 73 19 92 29 127 65 52 54 60 88 63 284 2 153 15 291 31 316 2 4 30 1 62
-6 31 -7 77 -17 102 -20 25 -4 52 -9 60 -10 8 -2 22 -4 31 -4 12 -1 26 -29 48
-98 33 -102 34 -108 45 -186 4 -27 9 -59 12 -70 12 -63 25 -207 28 -318 4
-150 21 -211 73 -263 49 -48 83 -56 251 -56 121 0 149 3 180 19 114 58 166
183 165 401 0 52 -4 145 -8 205 -5 61 -8 146 -8 190 0 78 12 318 16 321 1 1
44 22 95 46 85 41 92 42 93 23 2 -79 24 -129 62 -141 40 -13 151 -5 220 16
114 35 152 90 146 214 -1 29 1 57 4 63 6 10 151 50 217 59 14 2 72 12 130 23
96 18 107 18 145 3 93 -36 169 -108 179 -170 4 -17 8 -44 10 -59 3 -16 12 -71
21 -123 9 -52 19 -110 21 -129 7 -54 34 -101 77 -132 49 -35 86 -43 207 -42
114 0 166 19 233 85 62 59 70 95 62 276 -10 260 -30 409 -101 732 -19 91 -37
174 -40 185 -112 552 -202 834 -333 1050 -23 37 -39 70 -37 73 3 3 31 -10 62
-29 87 -53 142 -121 212 -261 70 -144 124 -206 199 -232 25 -9 54 -16 63 -16
9 0 27 -11 40 -25 13 -13 43 -32 67 -41 161 -62 313 49 330 239 6 67 -10 145
-31 153 -8 3 -30 -2 -51 -10 -23 -10 -67 -16 -115 -16 -124 0 -196 -36 -232
-116 -10 -24 -24 -44 -30 -44 -6 0 -30 19 -52 43 -29 30 -54 74 -86 152 -78
191 -150 274 -305 349 -83 41 -197 76 -244 76 -11 0 -54 27 -96 61 -247 196
-522 308 -850 346 -127 15 -409 6 -550 -17 -223 -36 -209 -35 -200 -14 15 37
14 136 -1 160 -18 26 -58 43 -92 37 -37 -5 -123 -44 -175 -79 l-49 -32 -64 29
c-74 34 -223 74 -309 84 -33 4 -71 9 -85 11 -14 3 -95 7 -180 9 -165 4 -239
-6 -356 -46 l-61 -22 -53 38 c-70 49 -146 83 -201 91 -39 5 -49 3 -74 -18z"/>
</g>
</svg>
